<svg width="32" height="32" fill="none" xmlns="http://www.w3.org/2000/svg"><rect width="32" height="32" rx="16" fill="#223"/><path fill-rule="evenodd" clip-rule="evenodd" d="M16.711 8.797a.5.5 0 00-.422 0l-6 2.8a.5.5 0 00-.289.453v6.9a.5.5 0 00.289.453l6 2.8a.5.5 0 00.422 0l6-2.8A.5.5 0 0023 18.95v-6.9a.5.5 0 00-.289-.453l-6-2.8zm-.211 2.36l-1.52-.646 1.52-.71 1.52.71-1.52.646zm.196 1.003l2.542-1.08 2.034.949-4.772 2.028-4.772-2.028 2.034-.95 2.542 1.081a.5.5 0 00.392 0zM17 14.93l5-2.124v3.124l-1.918.882a1 1 0 00-.582.908v2.078L17 20.965V14.93zm3.5 4.402l1.5-.7V17.03l-1.5.69v1.612zM16 14.93v6.034l-2.498-1.166V17.72a1 1 0 00-.582-.908L11 15.929v-3.123l5 2.125zm-5 3.7l1.502.702V17.72L11 17.03v1.602z" fill="#fff"/></svg>