<svg width="32" height="32" fill="none" xmlns="http://www.w3.org/2000/svg"><rect width="32" height="32" rx="16" fill="#223"/><path fill-rule="evenodd" clip-rule="evenodd" d="M12.383 9.295a.5.5 0 01.457-.298h7.66a.5.5 0 01.5.5V13.5a.5.5 0 01-.5.5h-2.865l2.894 3.162a.5.5 0 01-.369.838H17v3.5a.5.5 0 01-.854.353l-4-4A.5.5 0 0112 17.5v-4a.5.5 0 01.5-.5h2.865l-2.894-3.166a.5.5 0 01-.088-.539zM16.72 13l-2.745-3.003H20V13h-3.28zm-.44 1H13v3h6.025l-2.745-3zm-2.573 4L16 20.293V18h-2.293z" fill="#fff"/></svg>