<svg width="32" height="32" fill="none" xmlns="http://www.w3.org/2000/svg"><rect width="32" height="32" rx="16" fill="#57EFB4"/><path fill-rule="evenodd" clip-rule="evenodd" d="M16.5 8.85a6.65 6.65 0 00-2.102 12.96c.333.061.454-.144.454-.32 0-.158-.006-.576-.01-1.131-1.849.401-2.24-.892-2.24-.892-.302-.768-.738-.973-.738-.973-.603-.412.046-.404.046-.404.668.047 1.019.686 1.019.686.593 1.016 1.556.722 1.935.552.06-.43.232-.723.422-.889-1.476-.168-3.029-.738-3.029-3.287 0-.726.26-1.319.685-1.784-.069-.168-.297-.844.065-1.76 0 0 .558-.179 1.829.681a6.403 6.403 0 011.664-.223 6.394 6.394 0 011.665.223c1.27-.86 1.827-.68 1.827-.68.363.915.135 1.59.066 1.76.427.464.684 1.057.684 1.784 0 2.554-1.555 3.116-3.036 3.28.238.206.45.612.45 1.233 0 .888-.007 1.606-.007 1.824 0 .178.12.385.457.32a6.652 6.652 0 00-2.107-12.96z" fill="#223"/></svg>