<svg width="32" height="32" fill="none" xmlns="http://www.w3.org/2000/svg"><rect width="32" height="32" rx="16" fill="#223"/><path fill-rule="evenodd" clip-rule="evenodd" d="M16.233 12.696c0-1.727 1.4-3.128 3.127-3.128 1.014 0 1.823.48 2.366 1.176a5.245 5.245 0 001.625-.63 2.634 2.634 0 01-1.148 1.45l.002.004a5.259 5.259 0 001.5-.413l-.001.002c-.337.505-.76.95-1.248 1.313.026.176.04.354.04.53 0 3.687-2.809 7.974-7.975 7.974a7.93 7.93 0 01-4.296-1.259.5.5 0 01-.107-.749.45.45 0 01.438-.214c.915.108 1.83-.004 2.636-.356a3.086 3.086 0 01-1.69-1.877.45.45 0 01.103-.447 3.07 3.07 0 01-1.045-2.31v-.035a.45.45 0 01.365-.442 3.069 3.069 0 01-.344-1.416c0-.468.003-1.057.332-1.588a.45.45 0 01.323-.21.5.5 0 01.538.162 6.964 6.964 0 004.46 2.506v-.043zm-1.712 7.278a6.936 6.936 0 01-2.248-.372 5.318 5.318 0 002.39-1.042.45.45 0 00-.27-.804 2.174 2.174 0 01-1.715-.888c.19-.015.376-.048.557-.096a.45.45 0 00-.03-.876 2.18 2.18 0 01-1.643-1.475c.2.049.41.078.623.085a.45.45 0 00.265-.824 2.177 2.177 0 01-.969-1.813c0-.167.003-.316.013-.452a7.95 7.95 0 005.282 2.376.5.5 0 00.513-.61 2.127 2.127 0 012.072-2.614c1.233 0 2.135 1.143 2.135 2.432 0 3.256-2.476 6.973-6.975 6.973z" fill="#fff"/></svg>