<svg width="9" height="13" fill="none" xmlns="http://www.w3.org/2000/svg"><path fill-rule="evenodd" clip-rule="evenodd" d="M4 1.05H2.525a1.475 1.475 0 000 2.95H4V1.05zm0-1h2.475A2.475 2.475 0 017.967 4.5 2.475 2.475 0 015 8.463v1.962A2.475 2.475 0 111.033 8.45 2.471 2.471 0 01.05 6.475c0-.807.386-1.523.983-1.975A2.475 2.475 0 012.525.05H4zm1 1V4h1.475a1.475 1.475 0 100-2.95H5zm-2.475 6.9H4V5.001H2.525a1.475 1.475 0 00-.006 2.949h.006zM1.05 10.425c0-.813.657-1.472 1.469-1.475H4v1.475a1.475 1.475 0 01-2.95 0zM5 6.472a1.475 1.475 0 110 .006v-.006z" fill="#fff"/></svg>