<svg width="11" height="15" fill="none" xmlns="http://www.w3.org/2000/svg"><path fill-rule="evenodd" clip-rule="evenodd" d="M5.5.875a3.625 3.625 0 00-1.006 7.109c-1.194.145-2.218.567-2.99 1.328C.523 10.279.025 11.72.025 13.6a.475.475 0 10.95 0c0-1.72.453-2.88 1.196-3.612.745-.733 1.856-1.113 3.33-1.113 1.473 0 2.584.38 3.328 1.113.743.733 1.196 1.892 1.196 3.612a.475.475 0 10.95 0c0-1.88-.497-3.32-1.479-4.288-.771-.76-1.795-1.183-2.99-1.328A3.627 3.627 0 005.5.875zM2.825 4.5a2.675 2.675 0 115.35 0 2.675 2.675 0 01-5.35 0z" fill="#fff"/></svg>