<svg width="15" height="15" fill="none" xmlns="http://www.w3.org/2000/svg"><g clip-path="url(#clip0_1187_1141)"><path fill-rule="evenodd" clip-rule="evenodd" d="M1.85 7.5c0-.287.021-.569.062-.844L9.563 2.24c.3.117.587.26.858.424l-6.65 3.84a.447.447 0 00-.235.374.447.447 0 00.197.394l3.592 2.567-3.453 1.994A5.638 5.638 0 011.85 7.5zm6.518 2.775a.42.42 0 00.025-.014l1.448-.836a.448.448 0 00.018-.01l1.45-.838a.45.45 0 00.052-.756L7.828 5.2l3.389-1.957a5.637 5.637 0 011.848 5.24L5.568 12.81a5.623 5.623 0 01-.882-.41l3.682-2.126zm-.187-.931L4.816 6.939l.693-.4 3.297 2.444-.625.36zM6.358 6.048l.62-.357 3.297 2.444-.62.358-3.297-2.445zm1.973-4.137L2.242 5.426a5.652 5.652 0 016.09-3.515zM6.846 13.113a5.651 5.651 0 005.842-3.373l-5.842 3.373zM7.5.85a6.65 6.65 0 100 13.3 6.65 6.65 0 000-13.3z" fill="#223"/></g><defs><clipPath id="clip0_1187_1141"><path fill="#fff" d="M0 0h15v15H0z"/></clipPath></defs></svg>